<svg xmlns="http://www.w3.org/2000/svg" width="60" height="60"><path d="M30 0C13.435 0 0 13.772 0 30.758c0 13.59 8.595 25.12 20.517 29.188 1.498.284 1.983-.67 1.983-1.48V52.74c-8.345 1.861-10.082-3.63-10.082-3.63-1.365-3.554-3.333-4.5-3.333-4.5-2.723-1.91.207-1.869.207-1.869 3.013.216 4.598 3.171 4.598 3.171 2.675 4.701 7.018 3.342 8.73 2.556.268-1.987 1.045-3.345 1.905-4.112-6.662-.782-13.667-3.42-13.667-15.202 0-3.36 1.172-6.103 3.09-8.256-.31-.777-1.338-3.907.292-8.14 0 0 2.52-.826 8.253 3.152A28.773 29.5 0 0130 14.874c2.55.013 5.117.354 7.515 1.036 5.728-3.978 8.242-3.153 8.242-3.153 1.633 4.237.606 7.367.296 8.14 1.925 2.154 3.087 4.9 3.087 8.257 0 11.814-7.018 14.415-13.697 15.177 1.075.953 2.057 2.824 2.057 5.695v8.44c0 .818.48 1.78 2.002 1.477C51.415 55.87 60 44.343 60 30.758 60 13.772 46.568 0 30 0z" opacity=".997" fill="#a2d5c6"/></svg>