<?xml version="1.0" encoding="UTF-8" standalone="no"?>
<svg
   xmlns:dc="http://purl.org/dc/elements/1.1/"
   xmlns:cc="http://creativecommons.org/ns#"
   xmlns:rdf="http://www.w3.org/1999/02/22-rdf-syntax-ns#"
   xmlns:svg="http://www.w3.org/2000/svg"
   xmlns="http://www.w3.org/2000/svg"
   xmlns:sodipodi="http://sodipodi.sourceforge.net/DTD/sodipodi-0.dtd"
   xmlns:inkscape="http://www.inkscape.org/namespaces/inkscape"
   width="60"
   height="60"
   viewBox="0 0 60 60"
   version="1.1"
   id="svg4"
   sodipodi:docname="github.svg"
   inkscape:version="1.0.1 (3bc2e813f5, 2020-09-07)">
  <metadata
     id="metadata10">
    <rdf:RDF>
      <cc:Work
         rdf:about="">
        <dc:format>image/svg+xml</dc:format>
        <dc:type
           rdf:resource="http://purl.org/dc/dcmitype/StillImage" />
        <dc:title></dc:title>
      </cc:Work>
    </rdf:RDF>
  </metadata>
  <defs
     id="defs8" />
  <sodipodi:namedview
     pagecolor="#ffffff"
     bordercolor="#666666"
     borderopacity="1"
     objecttolerance="10"
     gridtolerance="10"
     guidetolerance="10"
     inkscape:pageopacity="0"
     inkscape:pageshadow="2"
     inkscape:window-width="1920"
     inkscape:window-height="1001"
     id="namedview6"
     showgrid="false"
     fit-margin-top="0"
     fit-margin-left="0"
     fit-margin-right="0"
     fit-margin-bottom="0"
     inkscape:zoom="4.3229167"
     inkscape:cx="-46.892368"
     inkscape:cy="77.300003"
     inkscape:window-x="2391"
     inkscape:window-y="114"
     inkscape:window-maximized="1"
     inkscape:current-layer="svg4" />
  <path
     d="M 30,0 C 13.435,0 0,13.772078 0,30.758409 0,44.3485 8.595,55.877777 20.5175,59.945577 22.015,60.230092 22.5,59.276581 22.5,58.46661 V 52.740419 C 14.155,54.601303 12.4175,49.110927 12.4175,49.110927 11.0525,45.555768 9.085,44.609947 9.085,44.609947 6.3625,42.700362 9.2925,42.741373 9.2925,42.741373 c 3.0125,0.215309 4.5975,3.17068 4.5975,3.17068 2.675,4.70091 7.0175,3.342413 8.73,2.555511 0.2675,-1.986481 1.045,-3.344977 1.905,-4.111374 -6.6625,-0.781777 -13.6675,-3.41931 -13.6675,-15.202344 0,-3.360356 1.1725,-6.102981 3.09,-8.25607 -0.31,-0.77665 -1.3375,-3.906318 0.2925,-8.140726 0,0 2.52,-0.82535 8.2525,3.152737 C 24.885,15.227976 27.45,14.88707 30,14.874254 c 2.55,0.01282 5.1175,0.353722 7.515,1.035533 5.7275,-3.978087 8.2425,-3.152737 8.2425,-3.152737 1.6325,4.236971 0.605,7.366639 0.295,8.140726 1.925,2.153089 3.0875,4.898277 3.0875,8.25607 0,11.813792 -7.0175,14.415441 -13.6975,15.176712 1.075,0.95351 2.0575,2.824647 2.0575,5.695432 v 8.44062 c 0,0.817661 0.48,1.778861 2.0025,1.476404 C 51.415,55.870088 60,44.343374 60,30.758409 60,13.772078 46.5675,0 30,0 Z"
     id="path2"
     style="stroke-width:2.5314" />
</svg>
