<svg xmlns="http://www.w3.org/2000/svg" width="60" height="60"><path d="M54.572 0H5.427A5.428 5.428 0 000 5.428v49.145A5.428 5.428 0 005.428 60h49.145A5.428 5.428 0 0060 54.572V5.425A5.428 5.428 0 0054.572 0zM18.567 51.807a1.58 1.58 0 01-1.58 1.58h-6.725a1.58 1.58 0 01-1.577-1.58V23.625c0-.873.708-1.577 1.577-1.577h6.726c.872 0 1.58.705 1.58 1.577zm-4.942-32.42a6.388 6.388 0 110-12.775 6.388 6.388 0 010 12.775zm40.078 32.55a1.452 1.452 0 01-1.45 1.45h-7.218a1.452 1.452 0 01-1.45-1.45V38.715c0-1.972.575-8.643-5.155-8.643-4.448 0-5.35 4.566-5.53 6.616v15.25a1.45 1.45 0 01-1.45 1.45h-6.983a1.452 1.452 0 01-1.45-1.45V23.495a1.452 1.452 0 011.45-1.452h6.978a1.452 1.452 0 011.452 1.45v2.46c1.65-2.475 4.1-4.385 9.318-4.385 11.55 0 11.485 10.795 11.485 16.725z" fill="#a2d5c6"/></svg>